<mxfile host="Electron" agent="Mozilla/5.0 (Windows NT 10.0; Win64; x64) AppleWebKit/537.36 (KHTML, like Gecko) draw.io/28.1.2 Chrome/138.0.7204.243 Electron/37.4.0 Safari/537.36" version="28.1.2">
  <diagram name="Página-1" id="FbUZBpfIFSXgdNJDuIjg">
    <mxGraphModel dx="1188" dy="701" grid="1" gridSize="10" guides="1" tooltips="1" connect="1" arrows="1" fold="1" page="1" pageScale="1" pageWidth="827" pageHeight="1169" math="0" shadow="0">
      <root>
        <mxCell id="0" />
        <mxCell id="1" parent="0" />
        <mxCell id="ubzUzJkwPAtcmAbpxVYC-1" value="Esquema elétrico refinado" style="text;html=1;align=center;verticalAlign=middle;resizable=0;points=[];autosize=1;strokeColor=none;fillColor=none;fontSize=16;fontStyle=1" vertex="1" parent="1">
          <mxGeometry x="309" y="70" width="210" height="30" as="geometry" />
        </mxCell>
        <mxCell id="ubzUzJkwPAtcmAbpxVYC-3" style="edgeStyle=orthogonalEdgeStyle;rounded=0;orthogonalLoop=1;jettySize=auto;html=1;exitX=1;exitY=0.5;exitDx=0;exitDy=0;strokeColor=light-dark(#ff0000, #ededed);strokeWidth=2;" edge="1" parent="1" source="ubzUzJkwPAtcmAbpxVYC-2">
          <mxGeometry relative="1" as="geometry">
            <mxPoint x="240" y="200" as="targetPoint" />
          </mxGeometry>
        </mxCell>
        <mxCell id="ubzUzJkwPAtcmAbpxVYC-6" style="edgeStyle=orthogonalEdgeStyle;rounded=0;orthogonalLoop=1;jettySize=auto;html=1;exitX=0.75;exitY=1;exitDx=0;exitDy=0;entryX=0.5;entryY=1;entryDx=0;entryDy=0;strokeWidth=2;" edge="1" parent="1" source="ubzUzJkwPAtcmAbpxVYC-2" target="ubzUzJkwPAtcmAbpxVYC-5">
          <mxGeometry relative="1" as="geometry">
            <Array as="points">
              <mxPoint x="170" y="260" />
              <mxPoint x="390" y="260" />
            </Array>
          </mxGeometry>
        </mxCell>
        <mxCell id="ubzUzJkwPAtcmAbpxVYC-2" value="Bateria 01&lt;div&gt;8.4V - 7.5mHA&lt;/div&gt;" style="whiteSpace=wrap;html=1;labelBackgroundColor=none;labelBorderColor=none;fillColor=#dae8fc;strokeColor=#6c8ebf;" vertex="1" parent="1">
          <mxGeometry x="80" y="170" width="120" height="60" as="geometry" />
        </mxCell>
        <mxCell id="ubzUzJkwPAtcmAbpxVYC-7" style="edgeStyle=orthogonalEdgeStyle;rounded=0;orthogonalLoop=1;jettySize=auto;html=1;exitX=1;exitY=0.5;exitDx=0;exitDy=0;entryX=0;entryY=0.5;entryDx=0;entryDy=0;strokeColor=light-dark(#ff0000, #ededed);strokeWidth=2;" edge="1" parent="1" source="ubzUzJkwPAtcmAbpxVYC-4" target="ubzUzJkwPAtcmAbpxVYC-5">
          <mxGeometry relative="1" as="geometry" />
        </mxCell>
        <mxCell id="ubzUzJkwPAtcmAbpxVYC-4" value="Botão" style="rounded=1;whiteSpace=wrap;html=1;fillColor=light-dark(#929090, #ededed);" vertex="1" parent="1">
          <mxGeometry x="240" y="180" width="80" height="40" as="geometry" />
        </mxCell>
        <mxCell id="ubzUzJkwPAtcmAbpxVYC-9" style="edgeStyle=orthogonalEdgeStyle;rounded=0;orthogonalLoop=1;jettySize=auto;html=1;exitX=1;exitY=0;exitDx=0;exitDy=0;entryX=0.5;entryY=1;entryDx=0;entryDy=0;shape=link;" edge="1" parent="1" source="ubzUzJkwPAtcmAbpxVYC-5" target="ubzUzJkwPAtcmAbpxVYC-8">
          <mxGeometry relative="1" as="geometry">
            <Array as="points">
              <mxPoint x="448" y="180" />
            </Array>
          </mxGeometry>
        </mxCell>
        <mxCell id="ubzUzJkwPAtcmAbpxVYC-12" style="edgeStyle=orthogonalEdgeStyle;rounded=0;orthogonalLoop=1;jettySize=auto;html=1;exitX=1;exitY=0.5;exitDx=0;exitDy=0;entryX=0.5;entryY=0;entryDx=0;entryDy=0;strokeWidth=3;strokeColor=light-dark(#3700ff, #ededed);" edge="1" parent="1" source="ubzUzJkwPAtcmAbpxVYC-5" target="ubzUzJkwPAtcmAbpxVYC-11">
          <mxGeometry relative="1" as="geometry" />
        </mxCell>
        <mxCell id="ubzUzJkwPAtcmAbpxVYC-5" value="RaspBerry" style="rhombus;whiteSpace=wrap;html=1;fillColor=light-dark(#2ff432, #ededed);" vertex="1" parent="1">
          <mxGeometry x="350" y="160" width="80" height="80" as="geometry" />
        </mxCell>
        <mxCell id="ubzUzJkwPAtcmAbpxVYC-8" value="Câmera" style="ellipse;whiteSpace=wrap;html=1;fillColor=#d5e8d4;strokeColor=#82b366;" vertex="1" parent="1">
          <mxGeometry x="413" y="110" width="70" height="50" as="geometry" />
        </mxCell>
        <mxCell id="ubzUzJkwPAtcmAbpxVYC-31" style="edgeStyle=orthogonalEdgeStyle;rounded=0;orthogonalLoop=1;jettySize=auto;html=1;exitX=0.5;exitY=1;exitDx=0;exitDy=0;entryX=0;entryY=0.5;entryDx=0;entryDy=0;fontColor=light-dark(#2b00ff, #ededed);strokeColor=light-dark(#0000ff, #ededed);strokeWidth=1;" edge="1" parent="1" source="ubzUzJkwPAtcmAbpxVYC-11" target="ubzUzJkwPAtcmAbpxVYC-27">
          <mxGeometry relative="1" as="geometry">
            <Array as="points">
              <mxPoint x="505" y="345" />
            </Array>
          </mxGeometry>
        </mxCell>
        <mxCell id="ubzUzJkwPAtcmAbpxVYC-33" style="edgeStyle=orthogonalEdgeStyle;rounded=0;orthogonalLoop=1;jettySize=auto;html=1;exitX=0.5;exitY=1;exitDx=0;exitDy=0;entryX=0;entryY=0.5;entryDx=0;entryDy=0;strokeColor=light-dark(#0000ff, #ededed);" edge="1" parent="1" source="ubzUzJkwPAtcmAbpxVYC-11" target="ubzUzJkwPAtcmAbpxVYC-29">
          <mxGeometry relative="1" as="geometry">
            <Array as="points">
              <mxPoint x="505" y="405" />
            </Array>
          </mxGeometry>
        </mxCell>
        <mxCell id="ubzUzJkwPAtcmAbpxVYC-35" style="edgeStyle=orthogonalEdgeStyle;rounded=0;orthogonalLoop=1;jettySize=auto;html=1;exitX=0.5;exitY=1;exitDx=0;exitDy=0;entryX=1;entryY=0.5;entryDx=0;entryDy=0;strokeColor=light-dark(#0000ff, #ededed);" edge="1" parent="1" source="ubzUzJkwPAtcmAbpxVYC-11" target="ubzUzJkwPAtcmAbpxVYC-23">
          <mxGeometry relative="1" as="geometry" />
        </mxCell>
        <mxCell id="ubzUzJkwPAtcmAbpxVYC-36" style="edgeStyle=orthogonalEdgeStyle;rounded=0;orthogonalLoop=1;jettySize=auto;html=1;exitX=0.5;exitY=1;exitDx=0;exitDy=0;entryX=1;entryY=0.5;entryDx=0;entryDy=0;strokeColor=light-dark(#0000ff, #ededed);" edge="1" parent="1" source="ubzUzJkwPAtcmAbpxVYC-11" target="ubzUzJkwPAtcmAbpxVYC-24">
          <mxGeometry relative="1" as="geometry" />
        </mxCell>
        <mxCell id="ubzUzJkwPAtcmAbpxVYC-37" style="edgeStyle=orthogonalEdgeStyle;rounded=0;orthogonalLoop=1;jettySize=auto;html=1;exitX=0.5;exitY=1;exitDx=0;exitDy=0;entryX=1;entryY=0.5;entryDx=0;entryDy=0;strokeColor=light-dark(#0000ff, #ededed);" edge="1" parent="1" source="ubzUzJkwPAtcmAbpxVYC-11" target="ubzUzJkwPAtcmAbpxVYC-25">
          <mxGeometry relative="1" as="geometry" />
        </mxCell>
        <mxCell id="ubzUzJkwPAtcmAbpxVYC-38" style="edgeStyle=orthogonalEdgeStyle;rounded=0;orthogonalLoop=1;jettySize=auto;html=1;exitX=0.5;exitY=1;exitDx=0;exitDy=0;entryX=1;entryY=0.5;entryDx=0;entryDy=0;strokeColor=light-dark(#0000ff, #ededed);" edge="1" parent="1" source="ubzUzJkwPAtcmAbpxVYC-11" target="ubzUzJkwPAtcmAbpxVYC-28">
          <mxGeometry relative="1" as="geometry" />
        </mxCell>
        <mxCell id="ubzUzJkwPAtcmAbpxVYC-11" value="Esp 32" style="rhombus;whiteSpace=wrap;html=1;fillColor=light-dark(#2ff432, #ededed);" vertex="1" parent="1">
          <mxGeometry x="470" y="270" width="70" height="70" as="geometry" />
        </mxCell>
        <mxCell id="ubzUzJkwPAtcmAbpxVYC-13" value="USB" style="text;html=1;align=center;verticalAlign=middle;resizable=0;points=[];autosize=1;strokeColor=none;fillColor=none;fontColor=light-dark(#3700ff, #ededed);fontStyle=1" vertex="1" parent="1">
          <mxGeometry x="460" y="200" width="50" height="30" as="geometry" />
        </mxCell>
        <mxCell id="ubzUzJkwPAtcmAbpxVYC-14" value="Flap" style="text;html=1;align=center;verticalAlign=middle;resizable=0;points=[];autosize=1;strokeColor=none;fillColor=none;" vertex="1" parent="1">
          <mxGeometry x="440" y="160" width="50" height="30" as="geometry" />
        </mxCell>
        <mxCell id="ubzUzJkwPAtcmAbpxVYC-18" style="edgeStyle=orthogonalEdgeStyle;rounded=0;orthogonalLoop=1;jettySize=auto;html=1;exitX=1;exitY=0.5;exitDx=0;exitDy=0;entryX=0;entryY=0.5;entryDx=0;entryDy=0;fontColor=light-dark(#ff0000, #ededed);strokeColor=light-dark(#ff0000, #ededed);strokeWidth=2;" edge="1" parent="1" source="ubzUzJkwPAtcmAbpxVYC-15" target="ubzUzJkwPAtcmAbpxVYC-17">
          <mxGeometry relative="1" as="geometry" />
        </mxCell>
        <mxCell id="ubzUzJkwPAtcmAbpxVYC-39" style="edgeStyle=orthogonalEdgeStyle;rounded=0;orthogonalLoop=1;jettySize=auto;html=1;exitX=0.5;exitY=0;exitDx=0;exitDy=0;entryX=0;entryY=0.5;entryDx=0;entryDy=0;strokeWidth=2;" edge="1" parent="1" source="ubzUzJkwPAtcmAbpxVYC-15" target="ubzUzJkwPAtcmAbpxVYC-11">
          <mxGeometry relative="1" as="geometry" />
        </mxCell>
        <mxCell id="ubzUzJkwPAtcmAbpxVYC-15" value="Bateria 02&lt;div&gt;8.4V - 5.2mHA&lt;/div&gt;" style="whiteSpace=wrap;html=1;labelBackgroundColor=none;labelBorderColor=none;fillColor=#dae8fc;strokeColor=#6c8ebf;" vertex="1" parent="1">
          <mxGeometry x="80" y="340" width="120" height="60" as="geometry" />
        </mxCell>
        <mxCell id="ubzUzJkwPAtcmAbpxVYC-20" style="edgeStyle=orthogonalEdgeStyle;rounded=0;orthogonalLoop=1;jettySize=auto;html=1;exitX=1;exitY=0.5;exitDx=0;exitDy=0;entryX=0;entryY=0.5;entryDx=0;entryDy=0;strokeColor=light-dark(#ff0000, #ededed);strokeWidth=2;" edge="1" parent="1" source="ubzUzJkwPAtcmAbpxVYC-17" target="ubzUzJkwPAtcmAbpxVYC-19">
          <mxGeometry relative="1" as="geometry" />
        </mxCell>
        <mxCell id="ubzUzJkwPAtcmAbpxVYC-17" value="Botão" style="rounded=1;whiteSpace=wrap;html=1;fillColor=light-dark(#929090, #ededed);" vertex="1" parent="1">
          <mxGeometry x="240" y="350" width="80" height="40" as="geometry" />
        </mxCell>
        <mxCell id="ubzUzJkwPAtcmAbpxVYC-51" style="edgeStyle=orthogonalEdgeStyle;rounded=0;orthogonalLoop=1;jettySize=auto;html=1;exitX=1;exitY=0.75;exitDx=0;exitDy=0;entryX=1;entryY=0.25;entryDx=0;entryDy=0;strokeColor=light-dark(#ff0000, #ededed);" edge="1" parent="1" source="ubzUzJkwPAtcmAbpxVYC-19" target="ubzUzJkwPAtcmAbpxVYC-23">
          <mxGeometry relative="1" as="geometry">
            <Array as="points">
              <mxPoint x="520" y="382" />
              <mxPoint x="520" y="444" />
              <mxPoint x="454" y="444" />
            </Array>
          </mxGeometry>
        </mxCell>
        <mxCell id="ubzUzJkwPAtcmAbpxVYC-52" style="edgeStyle=orthogonalEdgeStyle;rounded=0;orthogonalLoop=1;jettySize=auto;html=1;exitX=1;exitY=0.75;exitDx=0;exitDy=0;entryX=1;entryY=0.25;entryDx=0;entryDy=0;strokeColor=light-dark(#ff0000, #ededed);" edge="1" parent="1" source="ubzUzJkwPAtcmAbpxVYC-19" target="ubzUzJkwPAtcmAbpxVYC-24">
          <mxGeometry relative="1" as="geometry">
            <Array as="points">
              <mxPoint x="520" y="382" />
              <mxPoint x="520" y="504" />
            </Array>
          </mxGeometry>
        </mxCell>
        <mxCell id="ubzUzJkwPAtcmAbpxVYC-53" style="edgeStyle=orthogonalEdgeStyle;rounded=0;orthogonalLoop=1;jettySize=auto;html=1;exitX=1;exitY=0.75;exitDx=0;exitDy=0;entryX=1;entryY=0.25;entryDx=0;entryDy=0;strokeColor=light-dark(#ff0000, #ededed);" edge="1" parent="1" source="ubzUzJkwPAtcmAbpxVYC-19" target="ubzUzJkwPAtcmAbpxVYC-25">
          <mxGeometry relative="1" as="geometry">
            <Array as="points">
              <mxPoint x="520" y="382" />
              <mxPoint x="520" y="564" />
            </Array>
          </mxGeometry>
        </mxCell>
        <mxCell id="ubzUzJkwPAtcmAbpxVYC-54" style="edgeStyle=orthogonalEdgeStyle;rounded=0;orthogonalLoop=1;jettySize=auto;html=1;exitX=1;exitY=0.75;exitDx=0;exitDy=0;entryX=1;entryY=0.25;entryDx=0;entryDy=0;strokeColor=light-dark(#ff0000, #ededed);" edge="1" parent="1" source="ubzUzJkwPAtcmAbpxVYC-19" target="ubzUzJkwPAtcmAbpxVYC-28">
          <mxGeometry relative="1" as="geometry">
            <Array as="points">
              <mxPoint x="520" y="382" />
              <mxPoint x="520" y="624" />
            </Array>
          </mxGeometry>
        </mxCell>
        <mxCell id="ubzUzJkwPAtcmAbpxVYC-19" value="PCB&lt;br&gt;&lt;font style=&quot;font-size: 8px;&quot;&gt;Com capacitor eletrolítico&amp;nbsp;&lt;/font&gt;&lt;div&gt;&lt;font style=&quot;font-size: 8px;&quot;&gt;e cerâmico&lt;/font&gt;&lt;/div&gt;" style="shape=parallelogram;perimeter=parallelogramPerimeter;whiteSpace=wrap;html=1;fixedSize=1;" vertex="1" parent="1">
          <mxGeometry x="340" y="340" width="120" height="60" as="geometry" />
        </mxCell>
        <mxCell id="ubzUzJkwPAtcmAbpxVYC-22" style="edgeStyle=orthogonalEdgeStyle;rounded=0;orthogonalLoop=1;jettySize=auto;html=1;exitX=0.5;exitY=1;exitDx=0;exitDy=0;entryX=0.085;entryY=1.002;entryDx=0;entryDy=0;entryPerimeter=0;strokeWidth=2;" edge="1" parent="1" source="ubzUzJkwPAtcmAbpxVYC-15" target="ubzUzJkwPAtcmAbpxVYC-19">
          <mxGeometry relative="1" as="geometry" />
        </mxCell>
        <mxCell id="ubzUzJkwPAtcmAbpxVYC-23" value="Servo 01&lt;div&gt;270graus&lt;/div&gt;" style="shape=step;perimeter=stepPerimeter;whiteSpace=wrap;html=1;fixedSize=1;fillColor=#fff2cc;strokeColor=#d6b656;" vertex="1" parent="1">
          <mxGeometry x="352" y="430" width="110" height="50" as="geometry" />
        </mxCell>
        <mxCell id="ubzUzJkwPAtcmAbpxVYC-24" value="Servo 02&lt;div&gt;180graus&lt;/div&gt;" style="shape=step;perimeter=stepPerimeter;whiteSpace=wrap;html=1;fixedSize=1;fillColor=#fff2cc;strokeColor=#d6b656;" vertex="1" parent="1">
          <mxGeometry x="350" y="490" width="110" height="50" as="geometry" />
        </mxCell>
        <mxCell id="ubzUzJkwPAtcmAbpxVYC-25" value="Servo 03&lt;div&gt;180graus&lt;/div&gt;" style="shape=step;perimeter=stepPerimeter;whiteSpace=wrap;html=1;fixedSize=1;fillColor=#fff2cc;strokeColor=#d6b656;" vertex="1" parent="1">
          <mxGeometry x="350" y="550" width="110" height="50" as="geometry" />
        </mxCell>
        <mxCell id="ubzUzJkwPAtcmAbpxVYC-26" value="Garra" style="text;html=1;align=center;verticalAlign=middle;resizable=0;points=[];autosize=1;strokeColor=none;fillColor=none;fontSize=15;fontStyle=1" vertex="1" parent="1">
          <mxGeometry x="369" y="660" width="60" height="30" as="geometry" />
        </mxCell>
        <mxCell id="ubzUzJkwPAtcmAbpxVYC-27" value="Servo 01&lt;div&gt;360graus&lt;/div&gt;" style="shape=step;perimeter=stepPerimeter;whiteSpace=wrap;html=1;fixedSize=1;fillColor=#fff2cc;strokeColor=#d6b656;" vertex="1" parent="1">
          <mxGeometry x="581" y="320" width="110" height="50" as="geometry" />
        </mxCell>
        <mxCell id="ubzUzJkwPAtcmAbpxVYC-28" value="Servo 04&lt;div&gt;180graus&lt;/div&gt;" style="shape=step;perimeter=stepPerimeter;whiteSpace=wrap;html=1;fixedSize=1;fillColor=#fff2cc;strokeColor=#d6b656;" vertex="1" parent="1">
          <mxGeometry x="350" y="610" width="110" height="50" as="geometry" />
        </mxCell>
        <mxCell id="ubzUzJkwPAtcmAbpxVYC-29" value="Servo 02&lt;div&gt;360graus&lt;/div&gt;" style="shape=step;perimeter=stepPerimeter;whiteSpace=wrap;html=1;fixedSize=1;fillColor=#fff2cc;strokeColor=#d6b656;" vertex="1" parent="1">
          <mxGeometry x="580" y="380" width="110" height="50" as="geometry" />
        </mxCell>
        <mxCell id="ubzUzJkwPAtcmAbpxVYC-30" value="Locomoção" style="text;html=1;align=center;verticalAlign=middle;resizable=0;points=[];autosize=1;strokeColor=none;fillColor=none;fontSize=14;fontStyle=1" vertex="1" parent="1">
          <mxGeometry x="580" y="440" width="100" height="30" as="geometry" />
        </mxCell>
        <mxCell id="ubzUzJkwPAtcmAbpxVYC-40" style="edgeStyle=orthogonalEdgeStyle;rounded=0;orthogonalLoop=1;jettySize=auto;html=1;exitX=1;exitY=0.25;exitDx=0;exitDy=0;entryX=0.082;entryY=0.724;entryDx=0;entryDy=0;entryPerimeter=0;" edge="1" parent="1" source="ubzUzJkwPAtcmAbpxVYC-19" target="ubzUzJkwPAtcmAbpxVYC-27">
          <mxGeometry relative="1" as="geometry" />
        </mxCell>
        <mxCell id="ubzUzJkwPAtcmAbpxVYC-41" style="edgeStyle=orthogonalEdgeStyle;rounded=0;orthogonalLoop=1;jettySize=auto;html=1;exitX=1;exitY=0.25;exitDx=0;exitDy=0;entryX=-0.008;entryY=0.971;entryDx=0;entryDy=0;entryPerimeter=0;" edge="1" parent="1" source="ubzUzJkwPAtcmAbpxVYC-19" target="ubzUzJkwPAtcmAbpxVYC-29">
          <mxGeometry relative="1" as="geometry">
            <Array as="points">
              <mxPoint x="510" y="356" />
              <mxPoint x="510" y="429" />
            </Array>
          </mxGeometry>
        </mxCell>
        <mxCell id="ubzUzJkwPAtcmAbpxVYC-42" style="edgeStyle=orthogonalEdgeStyle;rounded=0;orthogonalLoop=1;jettySize=auto;html=1;exitX=1;exitY=0.25;exitDx=0;exitDy=0;entryX=0.835;entryY=0.99;entryDx=0;entryDy=0;entryPerimeter=0;" edge="1" parent="1" source="ubzUzJkwPAtcmAbpxVYC-19" target="ubzUzJkwPAtcmAbpxVYC-23">
          <mxGeometry relative="1" as="geometry">
            <Array as="points">
              <mxPoint x="510" y="356" />
              <mxPoint x="510" y="480" />
              <mxPoint x="444" y="480" />
            </Array>
          </mxGeometry>
        </mxCell>
        <mxCell id="ubzUzJkwPAtcmAbpxVYC-43" style="edgeStyle=orthogonalEdgeStyle;rounded=0;orthogonalLoop=1;jettySize=auto;html=1;exitX=1;exitY=0.25;exitDx=0;exitDy=0;entryX=0.827;entryY=1;entryDx=0;entryDy=0;entryPerimeter=0;" edge="1" parent="1" source="ubzUzJkwPAtcmAbpxVYC-19" target="ubzUzJkwPAtcmAbpxVYC-24">
          <mxGeometry relative="1" as="geometry">
            <Array as="points">
              <mxPoint x="510" y="356" />
              <mxPoint x="510" y="540" />
            </Array>
          </mxGeometry>
        </mxCell>
        <mxCell id="ubzUzJkwPAtcmAbpxVYC-44" style="edgeStyle=orthogonalEdgeStyle;rounded=0;orthogonalLoop=1;jettySize=auto;html=1;exitX=1;exitY=0.25;exitDx=0;exitDy=0;entryX=0.827;entryY=0.99;entryDx=0;entryDy=0;entryPerimeter=0;" edge="1" parent="1" source="ubzUzJkwPAtcmAbpxVYC-19" target="ubzUzJkwPAtcmAbpxVYC-25">
          <mxGeometry relative="1" as="geometry">
            <Array as="points">
              <mxPoint x="510" y="356" />
              <mxPoint x="510" y="600" />
              <mxPoint x="441" y="600" />
            </Array>
          </mxGeometry>
        </mxCell>
        <mxCell id="ubzUzJkwPAtcmAbpxVYC-45" style="edgeStyle=orthogonalEdgeStyle;rounded=0;orthogonalLoop=1;jettySize=auto;html=1;exitX=1;exitY=0.25;exitDx=0;exitDy=0;entryX=0.827;entryY=0.99;entryDx=0;entryDy=0;entryPerimeter=0;" edge="1" parent="1" source="ubzUzJkwPAtcmAbpxVYC-19" target="ubzUzJkwPAtcmAbpxVYC-28">
          <mxGeometry relative="1" as="geometry">
            <Array as="points">
              <mxPoint x="510" y="356" />
              <mxPoint x="510" y="660" />
              <mxPoint x="441" y="660" />
            </Array>
          </mxGeometry>
        </mxCell>
        <mxCell id="ubzUzJkwPAtcmAbpxVYC-48" style="edgeStyle=orthogonalEdgeStyle;rounded=0;orthogonalLoop=1;jettySize=auto;html=1;exitX=1;exitY=0.75;exitDx=0;exitDy=0;entryX=0.009;entryY=0.029;entryDx=0;entryDy=0;entryPerimeter=0;strokeColor=light-dark(#ff0000, #ededed);" edge="1" parent="1" source="ubzUzJkwPAtcmAbpxVYC-19" target="ubzUzJkwPAtcmAbpxVYC-27">
          <mxGeometry relative="1" as="geometry">
            <Array as="points">
              <mxPoint x="520" y="382" />
              <mxPoint x="520" y="321" />
            </Array>
          </mxGeometry>
        </mxCell>
        <mxCell id="ubzUzJkwPAtcmAbpxVYC-49" style="edgeStyle=orthogonalEdgeStyle;rounded=0;orthogonalLoop=1;jettySize=auto;html=1;exitX=1;exitY=0.75;exitDx=0;exitDy=0;entryX=-0.008;entryY=0.029;entryDx=0;entryDy=0;entryPerimeter=0;strokeColor=light-dark(#ff0000, #ededed);" edge="1" parent="1" source="ubzUzJkwPAtcmAbpxVYC-19" target="ubzUzJkwPAtcmAbpxVYC-29">
          <mxGeometry relative="1" as="geometry" />
        </mxCell>
        <mxCell id="ubzUzJkwPAtcmAbpxVYC-55" value="Pino 1" style="text;html=1;align=center;verticalAlign=middle;resizable=0;points=[];autosize=1;strokeColor=none;fillColor=none;fontSize=7;" vertex="1" parent="1">
          <mxGeometry x="540" y="330" width="40" height="20" as="geometry" />
        </mxCell>
        <mxCell id="ubzUzJkwPAtcmAbpxVYC-56" value="Pino 3" style="text;html=1;align=center;verticalAlign=middle;resizable=0;points=[];autosize=1;strokeColor=none;fillColor=none;fontSize=7;" vertex="1" parent="1">
          <mxGeometry x="540" y="390" width="40" height="20" as="geometry" />
        </mxCell>
        <mxCell id="ubzUzJkwPAtcmAbpxVYC-57" value="Pino 4" style="text;html=1;align=center;verticalAlign=middle;resizable=0;points=[];autosize=1;strokeColor=none;fillColor=none;fontSize=7;" vertex="1" parent="1">
          <mxGeometry x="462" y="450" width="40" height="20" as="geometry" />
        </mxCell>
        <mxCell id="ubzUzJkwPAtcmAbpxVYC-58" value="Pino 5" style="text;html=1;align=center;verticalAlign=middle;resizable=0;points=[];autosize=1;strokeColor=none;fillColor=none;fontSize=7;" vertex="1" parent="1">
          <mxGeometry x="460" y="510" width="40" height="20" as="geometry" />
        </mxCell>
        <mxCell id="ubzUzJkwPAtcmAbpxVYC-59" value="Pino 7" style="text;html=1;align=center;verticalAlign=middle;resizable=0;points=[];autosize=1;strokeColor=none;fillColor=none;fontSize=7;" vertex="1" parent="1">
          <mxGeometry x="460" y="571" width="40" height="20" as="geometry" />
        </mxCell>
        <mxCell id="ubzUzJkwPAtcmAbpxVYC-60" value="Pino 9" style="text;html=1;align=center;verticalAlign=middle;resizable=0;points=[];autosize=1;strokeColor=none;fillColor=none;fontSize=7;" vertex="1" parent="1">
          <mxGeometry x="460" y="630" width="40" height="20" as="geometry" />
        </mxCell>
      </root>
    </mxGraphModel>
  </diagram>
</mxfile>
